# xmcd
#
# Track frame offsets: 
#        150
#        15037
#        26085
#        39780
#        53145
#        67920
#        81075
#        95325
#        110252
#        123535
#        135770
#
# Disc length: 1960 seconds
#
# Revision: 2
# Processed by: cddbd v1.5.2PL0 Copyright (c) Steve Scherf et al.
# Submitted via: ExactAudioCopy v0.99pb5
#
DISCID=7407a60b
DTITLE=Michael Ballew - Daddy Don't Live In Heaven
DYEAR=2000
DGENRE=Country
TTITLE0=Daddy Don't Live In Heaven
TTITLE1=Pretending Fool
TTITLE2=Oh No
TTITLE3=Lonely Heart
TTITLE4=Loving Arms
TTITLE5=Sounds On The Radio
TTITLE6=Seminole Jail
TTITLE7=Blue Water
TTITLE8=You're Out Of My Sight
TTITLE9=Here Comes The Heartache
TTITLE10=Ain't No Future
EXTD=
EXTT0=
EXTT1=
EXTT2=
EXTT3=
EXTT4=
EXTT5=
EXTT6=
EXTT7=
EXTT8=
EXTT9=
EXTT10=
PLAYORDER=
